<?xml version="1.0" encoding="UTF-8"?>
<!DOCTYPE svg PUBLIC "-//W3C//DTD SVG 1.1//EN" "http://www.w3.org/Graphics/SVG/1.1/DTD/svg11.dtd">
<!-- Creator: CorelDRAW 2021.5 -->
<svg xmlns="http://www.w3.org/2000/svg" xml:space="preserve" width="130px" height="30px" version="1.1" style="shape-rendering:geometricPrecision; text-rendering:geometricPrecision; image-rendering:optimizeQuality; fill-rule:evenodd; clip-rule:evenodd"
viewBox="0 0 130 30.45"
 xmlns:xlink="http://www.w3.org/1999/xlink"
 xmlns:xodm="http://www.corel.com/coreldraw/odm/2003">
 <defs>
  <style type="text/css">
   <![CDATA[
    .fil0 {fill:white}
    .fil1 {fill:white;fill-rule:nonzero}
   ]]>
  </style>
 </defs>
 <g id="Capa_x0020_1">
  <metadata id="CorelCorpID_0Corel-Layer"/>
  <g id="_2585675675424">
   <path class="fil0" d="M13.381 10.775l-11.6 11.6c1.436,2.694 3.658,4.906 6.361,6.329l17.929 -17.929 -12.69 0zm-12.404 9.827l19.625 -19.625c-1.672,-0.631 -3.484,-0.977 -5.377,-0.977 -8.409,0 -15.225,6.816 -15.225,15.225 0,1.893 0.346,3.705 0.977,5.377zm16.876 0.968l-7.93 7.93c1.651,0.614 3.437,0.95 5.302,0.95 6.144,0 11.437,-3.64 13.843,-8.88l-11.215 0z"/>
   <polygon class="fil1" points="58.052,24.501 54.56,24.501 57.92,8.297 51.913,8.297 52.52,5.366 68.025,5.366 67.418,8.297 61.412,8.297 "/>
   <path class="fil1" d="M93.134 7.968c-0.815,0 -1.587,0.117 -2.3,0.356 -0.718,0.24 -1.357,0.572 -1.924,0.992 -0.571,0.42 -1.065,0.913 -1.489,1.489 -0.425,0.572 -0.782,1.192 -1.065,1.866 -0.288,0.674 -0.503,1.382 -0.645,2.12 -0.141,0.742 -0.215,1.489 -0.215,2.241 0,0.962 0.132,1.763 0.396,2.393 0.259,0.63 0.62,1.128 1.079,1.494 0.454,0.367 0.992,0.626 1.607,0.777 0.615,0.147 1.275,0.22 1.968,0.22 1.626,0.01 3.205,-0.298 4.781,-0.821l-0.635 3.069c-1.483,0.515 -3.37,0.711 -4.888,0.711 -1.153,0 -2.212,-0.146 -3.17,-0.434 -0.957,-0.293 -1.782,-0.743 -2.466,-1.353 -0.689,-0.611 -1.221,-1.397 -1.607,-2.349 -0.381,-0.953 -0.571,-2.09 -0.571,-3.409 0,-0.933 0.093,-1.885 0.278,-2.862 0.186,-0.972 0.474,-1.914 0.86,-2.828 0.386,-0.908 0.874,-1.768 1.46,-2.573 0.586,-0.806 1.284,-1.509 2.095,-2.11 0.811,-0.606 1.753,-1.079 2.818,-1.426 1.069,-0.347 2.222,-0.522 3.462,-0.522 0.679,0 1.456,0.063 2.325,0.185 0.874,0.122 1.69,0.308 2.442,0.552l-0.587 2.837c-0.718,-0.2 -1.386,-0.351 -2.016,-0.459 -0.63,-0.102 -1.294,-0.156 -1.993,-0.156z"/>
   <path class="fil1" d="M108.126 18.536c0,-0.439 -0.117,-0.796 -0.352,-1.074 -0.234,-0.278 -0.537,-0.508 -0.913,-0.689 -0.376,-0.18 -0.811,-0.342 -1.304,-0.478 -0.488,-0.137 -0.991,-0.284 -1.509,-0.435 -0.601,-0.19 -1.162,-0.415 -1.68,-0.674 -0.522,-0.259 -0.972,-0.576 -1.352,-0.952 -0.381,-0.376 -0.684,-0.836 -0.904,-1.368 -0.215,-0.532 -0.327,-1.152 -0.327,-1.861 0,-0.898 0.166,-1.714 0.493,-2.456 0.332,-0.737 0.796,-1.367 1.402,-1.895 0.605,-0.522 1.338,-0.928 2.197,-1.216 0.86,-0.288 1.817,-0.429 2.877,-0.429 1.123,0 2.241,0.121 3.345,0.361 1.102,0.243 2.069,0.542 2.905,0.902l-0.6 2.897c-1.079,-0.424 -2.036,-0.732 -2.881,-0.918 -0.845,-0.19 -1.69,-0.283 -2.54,-0.283 -1.138,0 -2.022,0.239 -2.661,0.718 -0.64,0.478 -0.957,1.118 -0.957,1.919 0,0.43 0.082,0.796 0.253,1.094 0.171,0.303 0.401,0.552 0.689,0.757 0.283,0.205 0.62,0.386 1.006,0.532 0.386,0.147 0.796,0.289 1.226,0.42 0.62,0.191 1.24,0.396 1.86,0.616 0.621,0.219 1.177,0.503 1.676,0.854 0.493,0.347 0.893,0.792 1.201,1.338 0.303,0.542 0.454,1.216 0.454,2.018 0,1.04 -0.195,1.972 -0.591,2.793 -0.395,0.82 -0.957,1.514 -1.69,2.085 -0.727,0.577 -1.611,1.011 -2.651,1.314 -1.041,0.298 -2.203,0.449 -3.477,0.449 -1.487,0 -4.599,-0.202 -5.929,-0.715l0.635 -3.065c1.542,0.525 3.997,0.819 5.323,0.821 0.723,0.001 1.377,-0.078 1.963,-0.23 0.591,-0.151 1.089,-0.371 1.504,-0.649 0.415,-0.284 0.738,-0.64 0.967,-1.065 0.23,-0.425 0.342,-0.903 0.342,-1.436z"/>
   <path class="fil1" d="M125.489 19.636l-6.798 0 -2.629 4.865 -3.893 0 10.608 -19.135 3.262 0 3.961 19.135 -3.58 0 -0.931 -4.865zm-5.206 -2.93l4.649 0 -0.393 -2.061c-0.319,-1.65 -0.578,-3.184 -0.774,-4.595l-0.088 0c-0.668,1.504 -1.4,2.979 -2.186,4.425l-1.208 2.231z"/>
   <polygon class="fil1" points="70.42,21.57 79.449,21.57 78.844,24.501 66.327,24.501 70.288,5.366 82.283,5.366 81.676,8.297 73.179,8.297 72.149,13.249 79.451,13.249 78.844,16.179 71.548,16.179 "/>
   <polygon class="fil1" points="38.393,21.57 47.422,21.57 46.817,24.501 34.301,24.501 38.261,5.366 50.256,5.366 49.65,8.297 41.152,8.297 40.122,13.249 47.424,13.249 46.817,16.179 39.521,16.179 "/>
  </g>
 </g>
</svg>
