<?xml version="1.0" standalone="no"?>
<!DOCTYPE svg PUBLIC "-//W3C//DTD SVG 20010904//EN"
 "http://www.w3.org/TR/2001/REC-SVG-20010904/DTD/svg10.dtd">
<svg version="1.0" xmlns="http://www.w3.org/2000/svg"
 width="1753.000000pt" height="633.000000pt" viewBox="0 0 1753.000000 633.000000"
 preserveAspectRatio="xMidYMid meet">

<g transform="translate(0.000000,633.000000) scale(0.100000,-0.100000)"
fill="#000000" stroke="none">
<path d="M2671 5870 c-480 -39 -993 -282 -1365 -648 -298 -293 -515 -734 -571
-1165 -47 -365 18 -781 179 -1141 l26 -59 233 229 c128 126 770 755 1426 1399
l1193 1170 -64 28 c-314 141 -724 213 -1057 187z"/>
<path d="M12120 4184 c-555 -71 -990 -367 -1225 -834 -54 -107 -98 -231 -137
-385 -36 -145 -49 -365 -28 -493 67 -419 396 -694 901 -753 129 -15 409 -7
534 16 122 21 266 61 351 96 68 28 71 31 89 82 10 28 40 96 66 149 47 94 48
98 29 108 -17 9 -31 3 -84 -35 -121 -86 -295 -160 -461 -196 -33 -7 -112 -12
-175 -12 -205 1 -359 61 -485 187 -187 188 -236 481 -149 875 128 572 511 969
964 997 224 14 434 -83 551 -255 26 -39 40 -51 60 -51 24 0 28 7 53 81 14 45
47 124 72 176 53 110 56 103 -63 153 -93 39 -232 76 -358 95 -122 18 -360 18
-505 -1z"/>
<path d="M13980 4181 c-436 -93 -741 -449 -741 -868 -1 -113 23 -194 83 -284
57 -86 156 -162 332 -259 297 -163 368 -217 415 -313 20 -42 23 -60 19 -130
-11 -220 -177 -375 -428 -401 -251 -26 -442 105 -474 327 -7 45 -9 47 -39 47
-31 0 -33 -3 -56 -67 -13 -38 -54 -137 -92 -222 -79 -177 -82 -160 36 -215
127 -61 235 -80 440 -81 195 0 314 19 454 71 154 58 257 122 369 228 125 119
201 242 247 403 68 232 33 419 -104 566 -75 79 -147 128 -352 238 -250 134
-321 190 -367 288 -46 100 -18 231 70 327 94 103 202 149 348 149 192 0 309
-80 356 -242 14 -48 18 -53 43 -53 25 0 32 7 51 53 12 28 52 106 87 171 l64
119 -28 23 c-39 32 -128 79 -188 99 -141 47 -388 59 -545 26z"/>
<path d="M2135 3708 c-259 -254 -606 -596 -773 -760 l-304 -298 60 -82 c81
-112 185 -227 290 -321 82 -73 269 -212 339 -253 l32 -18 178 175 c98 96 495
484 883 864 388 379 811 794 940 922 l235 233 -705 0 -705 0 -470 -462z"/>
<path d="M15975 3995 c-140 -241 -576 -968 -783 -1305 -153 -250 -531 -858
-569 -916 -13 -20 -12 -20 55 -12 37 5 114 6 172 3 l105 -6 117 233 c65 128
150 288 189 356 l70 122 177 1 c239 1 646 -2 648 -4 6 -6 50 -272 79 -475 18
-129 35 -235 37 -236 2 -2 50 1 108 6 107 10 455 3 486 -9 20 -8 25 -32 -55
277 -100 387 -221 938 -366 1665 -47 237 -87 439 -90 450 -4 19 -12 20 -143
20 l-139 0 -98 -170z m19 -680 c42 -208 116 -607 116 -629 0 -14 -33 -16 -320
-16 -216 0 -320 3 -320 10 0 20 316 563 448 769 19 30 37 51 38 46 2 -6 19
-86 38 -180z"/>
<path d="M5566 4134 c-3 -16 -13 -85 -21 -154 -50 -396 -273 -1582 -386 -2049
-21 -90 -39 -166 -39 -170 0 -3 66 -2 147 2 156 9 1150 1 1194 -9 25 -6 25 -5
37 85 7 49 21 118 32 153 10 34 18 63 17 64 -1 2 -68 -3 -147 -11 -80 -8 -215
-16 -300 -20 -85 -3 -204 -8 -264 -11 l-108 -5 7 58 c20 167 141 811 156 827
7 8 477 -5 705 -21 l91 -6 6 79 c3 44 15 108 26 144 11 35 18 66 16 68 -2 3
-141 0 -307 -7 -167 -6 -347 -11 -401 -11 -96 0 -97 0 -92 23 3 12 25 126 50
252 25 127 59 288 76 358 l31 129 112 -6 c61 -4 226 -13 366 -21 140 -8 269
-15 286 -15 l31 0 7 74 c4 40 16 106 27 146 11 40 18 73 17 74 -2 1 -106 -2
-233 -7 -228 -8 -939 -2 -1066 10 l-67 6 -6 -29z"/>
<path d="M7166 4081 c-3 -45 -17 -115 -30 -156 l-24 -75 22 5 c24 5 354 31
525 40 l114 7 -7 -63 c-8 -71 -216 -1183 -277 -1479 -22 -107 -60 -278 -85
-380 -24 -102 -46 -194 -49 -205 -4 -19 -1 -20 78 -13 107 8 321 8 420 -1 91
-8 78 -28 102 164 27 208 96 607 215 1239 121 646 137 723 151 731 15 10 521
-25 595 -40 20 -4 22 1 27 70 3 42 16 109 28 150 12 42 20 77 18 79 -2 2 -132
-1 -289 -6 -283 -10 -1364 -4 -1471 8 l-56 6 -7 -81z"/>
<path d="M9326 4124 c-3 -22 -13 -93 -22 -159 -60 -457 -274 -1587 -389 -2054
-19 -80 -35 -147 -35 -150 0 -4 66 -2 147 2 123 7 1121 2 1203 -6 24 -2 25 0
32 78 4 44 16 111 27 150 11 38 19 71 18 72 -1 1 -66 -5 -145 -12 -79 -8 -214
-16 -300 -20 -86 -3 -206 -8 -266 -11 l-108 -5 6 48 c31 218 144 822 157 837
7 8 478 -5 705 -21 l91 -6 6 79 c4 44 17 107 28 142 12 35 19 66 16 69 -3 3
-165 0 -359 -7 -194 -7 -374 -10 -399 -9 l-45 4 42 220 c24 121 60 291 81 378
l37 159 110 -6 c61 -4 226 -13 366 -21 358 -21 316 -28 324 53 4 37 16 102 28
145 11 43 19 79 17 81 -2 1 -103 -2 -224 -6 -220 -9 -952 -3 -1076 8 l-67 7
-6 -39z"/>
<path d="M2761 2552 c-306 -302 -591 -581 -633 -621 -43 -41 -78 -77 -78 -82
0 -4 42 -21 93 -38 727 -233 1420 -125 2005 313 211 159 425 397 570 638 51
86 162 312 162 333 0 3 -351 5 -781 5 l-781 0 -557 -548z"/>
<path d="M1783 902 c-55 -3 -63 -6 -68 -25 -2 -12 -12 -60 -21 -107 -16 -83
-59 -277 -70 -312 -4 -14 1 -18 25 -18 28 0 30 3 41 58 6 31 17 80 23 107 l12
50 60 3 c83 4 119 17 154 57 36 41 48 94 31 134 -18 44 -71 59 -187 53z m115
-38 c17 -12 22 -25 22 -60 0 -36 -6 -51 -34 -81 -30 -33 -39 -37 -96 -41 -62
-5 -63 -4 -57 19 3 13 13 59 23 102 l18 77 51 0 c30 0 60 -6 73 -16z"/>
<path d="M2184 902 l-72 -3 -7 -47 c-4 -26 -24 -126 -46 -222 -21 -96 -39
-178 -39 -182 0 -13 48 -9 53 5 2 6 12 56 23 111 12 64 23 100 33 104 18 7 53
-33 127 -145 51 -77 57 -83 89 -83 l34 0 -80 112 c-44 61 -76 114 -72 118 4 4
26 12 48 18 113 32 145 186 43 207 -53 11 -59 11 -134 7z m122 -47 c21 -21 24
-31 19 -58 -16 -74 -69 -110 -154 -105 l-48 3 19 80 c10 44 20 86 23 93 3 7
25 12 60 12 46 0 60 -4 81 -25z"/>
<path d="M2923 891 c-47 -22 -71 -53 -80 -105 -7 -46 11 -73 82 -126 70 -52
81 -71 66 -121 -23 -75 -107 -103 -179 -59 l-33 20 -8 -22 c-11 -30 18 -47 82
-48 118 -1 211 88 192 186 -5 29 -17 42 -70 77 -68 44 -92 80 -80 119 24 77
125 102 170 40 9 -11 13 -9 23 12 11 24 10 27 -14 36 -40 16 -105 11 -151 -9z"/>
<path d="M3236 680 c-86 -127 -156 -233 -156 -235 0 -3 9 -5 19 -5 13 0 35 27
72 90 l53 90 97 0 96 0 13 -77 c16 -104 15 -103 48 -103 l28 0 -50 235 c-28
129 -54 235 -58 235 -4 0 -77 -104 -162 -230z m154 59 c11 -46 17 -85 16 -87
-2 -1 -38 -2 -80 0 l-76 3 58 87 c31 47 59 85 60 83 2 -2 12 -41 22 -86z"/>
<path d="M3970 902 l-76 -3 -23 -117 c-13 -64 -36 -168 -51 -231 l-28 -113
137 4 c122 4 141 7 186 30 141 73 204 241 134 355 -39 63 -109 82 -279 75z
m184 -45 c39 -26 57 -60 63 -119 7 -78 -24 -154 -88 -212 -55 -49 -107 -66
-209 -66 -48 0 -60 3 -60 16 0 21 80 386 87 398 10 15 178 2 207 -17z"/>
<path d="M4539 903 l-105 -4 -23 -120 c-13 -66 -35 -169 -50 -229 l-27 -110
123 0 c103 0 123 2 123 15 0 12 -17 15 -90 15 -49 0 -90 2 -90 4 0 5 27 139
35 173 5 20 12 22 87 25 54 2 83 7 86 16 3 9 -17 12 -77 12 -45 0 -81 4 -81 9
0 13 29 136 37 157 5 14 16 15 85 9 74 -6 78 -5 78 14 0 12 -1 20 -2 19 -2 -1
-51 -4 -109 -5z"/>
<path d="M5068 902 c-147 -2 -168 -5 -168 -19 0 -14 10 -15 75 -9 74 7 75 6
75 -16 0 -20 -72 -355 -86 -400 -4 -15 1 -18 25 -18 17 0 31 2 31 4 0 14 72
349 83 386 l13 45 67 -3 c55 -3 67 -1 67 12 0 8 -3 16 -7 18 -5 2 -83 2 -175
0z"/>
<path d="M6465 892 c-108 -37 -173 -122 -182 -236 -9 -112 45 -190 150 -216
86 -22 207 2 215 42 3 15 -1 15 -39 -3 -52 -26 -133 -28 -182 -4 -53 25 -80
68 -85 134 -14 194 149 332 307 260 35 -15 46 -17 53 -7 13 21 10 25 -23 37
-47 16 -157 13 -214 -7z"/>
<path d="M6904 890 c-107 -42 -174 -143 -174 -263 0 -38 5 -78 11 -90 39 -75
120 -112 228 -105 116 9 204 66 253 167 34 69 32 173 -4 228 -36 55 -85 77
-183 80 -62 2 -92 -2 -131 -17z m206 -18 c106 -55 104 -249 -4 -356 -109 -109
-285 -79 -315 53 -25 114 45 264 144 307 44 20 134 17 175 -4z"/>
<path d="M8565 833 c-26 -120 -83 -356 -90 -375 -6 -14 -2 -18 19 -18 19 0 26
5 26 20 0 32 61 324 69 333 9 9 42 -34 182 -233 l94 -134 13 64 c19 89 80 360
88 388 5 18 2 22 -15 22 -13 0 -22 -8 -25 -22 -2 -13 -17 -88 -31 -168 -15
-80 -31 -154 -35 -164 -5 -16 -24 5 -102 115 -52 74 -112 160 -133 192 -21 31
-39 57 -40 57 -2 0 -11 -35 -20 -77z"/>
<path d="M9407 894 c-74 -23 -150 -102 -172 -178 -50 -173 56 -298 240 -283
67 5 115 23 115 44 0 16 0 16 -45 -3 -51 -21 -133 -21 -178 1 -56 26 -82 76
-82 155 1 83 18 132 64 183 67 74 166 98 246 57 40 -20 63 -15 52 13 -11 30
-157 36 -240 11z"/>
<path d="M9868 818 c-239 -346 -259 -378 -235 -378 18 0 34 19 76 90 l54 91
96 -3 96 -3 14 -87 c15 -86 15 -88 43 -88 15 0 28 3 28 8 0 19 -94 448 -101
455 -4 5 -36 -33 -71 -85z m60 -81 l19 -87 -79 0 c-43 0 -78 2 -78 5 0 8 113
176 116 172 2 -1 11 -42 22 -90z"/>
<path d="M10313 896 c-120 -38 -193 -137 -193 -260 1 -132 98 -214 243 -204
70 5 120 25 125 50 3 15 -1 15 -39 -4 -55 -26 -146 -27 -190 -1 -51 29 -72 66
-77 133 -8 115 43 214 132 256 62 29 117 30 175 3 35 -15 46 -17 53 -7 13 21
10 25 -23 37 -43 15 -154 13 -206 -3z"/>
<path d="M10956 890 c-58 -23 -119 -79 -148 -134 -23 -44 -34 -135 -24 -190
21 -113 185 -170 332 -115 187 70 249 329 103 426 -37 24 -53 28 -128 31 -67
1 -97 -2 -135 -18z m221 -26 c123 -90 52 -360 -107 -404 -88 -25 -167 -2 -207
59 -18 26 -23 48 -23 97 0 113 53 208 145 258 43 23 155 18 192 -10z"/>
<path d="M11451 848 c-7 -35 -30 -137 -52 -227 -21 -90 -39 -167 -39 -172 0
-5 8 -9 19 -9 15 0 21 17 39 113 12 62 29 146 38 186 l17 74 18 -24 c10 -13
71 -99 136 -191 64 -92 118 -166 119 -165 2 2 15 59 29 127 15 69 37 169 51
222 29 116 29 118 6 118 -15 0 -22 -24 -46 -151 -15 -83 -33 -167 -38 -186
l-9 -35 -41 54 c-22 29 -83 115 -135 191 -52 75 -96 137 -97 137 -2 0 -9 -28
-15 -62z"/>
<path d="M12381 888 c-33 -16 -48 -32 -63 -65 -32 -73 -14 -108 89 -177 48
-32 58 -53 49 -101 -9 -47 -57 -85 -106 -85 -41 0 -90 17 -90 32 0 17 -17 7
-28 -16 -10 -23 -8 -26 25 -37 21 -6 59 -9 90 -6 89 9 152 65 160 142 7 55 -7
79 -71 120 -65 42 -79 59 -79 96 0 83 104 128 162 70 18 -18 19 -18 30 5 10
22 8 26 -15 34 -42 16 -106 11 -153 -12z"/>
<path d="M12979 902 l-76 -3 -27 -132 c-14 -73 -37 -176 -50 -231 l-24 -98
137 4 c123 4 141 7 187 31 113 58 178 178 156 285 -25 121 -91 152 -303 144z
m186 -46 c31 -21 64 -88 65 -132 0 -53 -28 -129 -66 -172 -53 -63 -102 -84
-208 -90 l-89 -5 7 44 c9 62 77 362 83 373 10 16 178 2 208 -18z"/>
<path d="M14094 899 c-54 -15 -127 -72 -157 -121 -31 -50 -45 -137 -33 -203
10 -50 66 -110 123 -129 79 -27 202 -15 231 22 22 29 13 31 -35 10 -61 -27
-140 -28 -185 -1 -54 32 -78 76 -78 148 0 193 154 315 309 244 35 -15 46 -17
53 -7 13 21 10 25 -23 37 -38 13 -161 13 -205 0z"/>
<path d="M15064 902 l-61 -3 -13 -72 c-7 -40 -28 -139 -46 -222 -19 -82 -34
-153 -34 -157 0 -12 159 -9 202 2 134 37 169 197 52 229 l-29 8 42 21 c53 28
83 66 83 107 0 70 -53 94 -196 87z m118 -39 c25 -30 28 -52 14 -88 -20 -46
-69 -75 -128 -75 -37 0 -48 4 -48 16 0 15 25 121 35 152 7 20 109 16 127 -5z
m-70 -193 c98 -28 86 -153 -19 -196 -44 -19 -123 -19 -123 0 0 13 21 123 35
184 6 25 43 29 107 12z"/>
<path d="M15418 675 c-136 -203 -155 -235 -135 -235 17 0 34 20 75 90 l53 90
93 0 c68 0 95 -4 99 -13 3 -7 11 -48 17 -90 13 -76 13 -77 43 -77 25 0 29 3
25 23 -98 455 -96 447 -106 447 -4 -1 -78 -106 -164 -235z m172 -7 c0 -16 -10
-18 -75 -18 -41 0 -75 2 -75 5 0 3 26 44 57 91 l58 87 17 -74 c9 -41 17 -82
18 -91z"/>
<path d="M16115 896 c-50 -22 -85 -71 -85 -117 0 -55 11 -72 79 -118 32 -22
61 -47 65 -56 14 -37 5 -75 -25 -110 -27 -31 -37 -35 -79 -35 -33 0 -55 6 -75
21 -22 18 -29 20 -36 8 -24 -38 8 -59 90 -59 60 0 128 34 159 80 18 27 22 45
20 84 -3 47 -6 52 -48 83 -99 71 -100 73 -100 109 0 46 14 70 50 89 42 22 77
19 106 -10 l25 -25 10 27 c5 14 7 28 4 31 -13 13 -131 12 -160 -2z"/>
<path d="M16759 882 c-9 -15 -80 -120 -158 -234 -122 -180 -138 -208 -118
-208 17 0 33 19 75 90 l53 91 97 -3 97 -3 14 -87 c14 -86 15 -88 43 -88 15 0
28 3 28 8 -1 31 -99 457 -106 459 -5 2 -16 -9 -25 -25z m30 -209 c1 -22 -3
-23 -74 -23 -41 0 -75 2 -75 5 0 3 26 44 58 92 l57 86 17 -69 c9 -38 17 -79
17 -91z"/>
<path d="M745 888 c-2 -7 -6 -31 -10 -53 -6 -40 -70 -330 -81 -372 -6 -23 -6
-23 120 -23 105 0 126 2 126 15 0 12 -17 15 -94 15 l-93 0 20 100 20 100 83 0
c68 0 84 3 84 15 0 12 -16 15 -81 15 -72 0 -80 2 -76 18 3 9 13 50 22 91 l18
74 78 -7 c67 -5 79 -4 79 9 0 12 -18 15 -105 15 -76 0 -107 -4 -110 -12z"/>
<path d="M1095 878 c-65 -294 -89 -397 -96 -415 -7 -20 -5 -23 15 -23 21 0 25
6 30 48 12 78 57 296 66 311 8 15 29 -48 85 -249 15 -52 28 -101 31 -109 2 -7
57 63 121 155 133 194 153 220 153 207 0 -13 -38 -186 -61 -275 -10 -42 -19
-79 -19 -82 0 -3 13 -6 28 -6 28 0 29 2 41 73 7 39 26 131 42 202 17 72 32
142 36 158 5 24 2 27 -19 27 -20 0 -40 -23 -111 -127 -47 -71 -107 -157 -133
-192 l-47 -65 -14 45 c-18 62 -70 246 -83 297 -9 35 -15 42 -35 42 -17 0 -26
-7 -30 -22z"/>
<path d="M2536 878 c-21 -106 -88 -413 -93 -424 -4 -12 16 -14 121 -14 105 0
126 2 126 15 0 12 -17 15 -90 15 -62 0 -90 4 -90 12 0 6 8 51 17 100 l17 88
83 0 c67 0 83 3 83 15 0 12 -16 15 -81 15 -61 0 -80 3 -76 13 2 6 13 47 23 91
l18 79 77 -7 c63 -5 78 -4 83 9 5 13 -10 15 -104 15 -106 0 -110 -1 -114 -22z"/>
<path d="M5356 883 c-2 -10 -14 -67 -26 -128 -12 -60 -32 -154 -46 -207 -13
-53 -24 -99 -24 -102 0 -3 56 -6 125 -6 104 0 125 2 125 15 0 12 -17 15 -90
15 -104 0 -99 -8 -73 118 l17 82 83 0 c67 0 83 3 83 15 0 12 -16 15 -81 15
-72 0 -80 2 -75 18 3 9 13 50 22 91 l16 73 79 -6 c68 -6 79 -5 79 8 0 14 -16
16 -104 16 -91 0 -105 -2 -110 -17z"/>
<path d="M5707 893 c-4 -3 -7 -16 -7 -27 0 -12 -20 -111 -45 -221 -25 -110
-45 -201 -45 -202 0 -2 54 -3 120 -3 100 0 120 3 120 15 0 12 -17 15 -89 15
l-89 0 33 158 c18 86 39 183 48 215 l15 57 -27 0 c-15 0 -31 -3 -34 -7z"/>
<path d="M6010 843 c-20 -101 -81 -373 -87 -388 -4 -13 14 -15 121 -15 105 0
126 2 126 15 0 12 -17 15 -90 15 -104 0 -100 -8 -72 120 l17 75 83 3 c63 2 82
6 82 17 0 11 -19 15 -79 17 l-79 3 22 85 21 85 77 -2 c59 -2 77 1 82 12 4 13
-11 15 -104 15 l-109 0 -11 -57z"/>
<path d="M7405 888 c-2 -7 -13 -58 -25 -113 -21 -95 -65 -280 -76 -317 -4 -14
1 -18 20 -18 22 0 26 4 26 29 0 17 11 85 26 153 14 68 28 138 31 156 3 17 9
32 13 32 5 0 93 -289 114 -374 1 -5 62 77 135 183 74 105 135 190 137 188 2
-2 -12 -73 -32 -158 -19 -85 -37 -166 -41 -181 -5 -26 -3 -28 24 -28 29 0 31
2 37 53 5 44 57 287 81 380 6 24 5 27 -19 27 -21 0 -35 -14 -77 -77 -104 -154
-211 -304 -216 -300 -6 7 -103 348 -103 364 0 17 -49 17 -55 1z"/>
<path d="M8028 888 c-3 -7 -20 -88 -39 -180 -33 -163 -33 -167 -16 -203 41
-87 205 -102 305 -28 46 35 68 85 107 246 18 78 37 150 40 160 6 13 2 17 -18
17 -23 0 -25 -5 -36 -73 -22 -135 -59 -268 -85 -302 -49 -64 -157 -86 -224
-45 -54 33 -58 57 -27 204 15 71 33 148 40 172 l13 44 -28 0 c-15 0 -30 -6
-32 -12z"/>
<path d="M9101 838 c-17 -90 -79 -361 -87 -381 -5 -14 0 -17 24 -17 35 0 33
-6 62 145 12 61 32 154 46 207 13 53 24 99 24 102 0 3 -13 6 -29 6 -27 0 -29
-3 -40 -62z"/>
<path d="M10660 843 c-20 -101 -81 -373 -87 -388 -4 -11 3 -15 26 -15 24 0 32
5 35 23 21 105 88 412 93 423 4 10 -3 14 -25 14 -29 0 -31 -3 -42 -57z"/>
<path d="M11991 838 c-19 -98 -79 -361 -86 -380 -7 -17 3 -18 119 -18 105 0
126 2 126 15 0 12 -17 15 -90 15 -66 0 -90 3 -90 13 1 6 9 50 18 97 l18 85 81
3 c60 2 83 7 87 17 4 12 -9 15 -78 15 l-84 0 22 88 23 87 78 0 c54 0 79 4 82
13 4 9 -22 12 -105 12 l-109 0 -12 -62z"/>
<path d="M13420 783 c-12 -65 -35 -169 -50 -230 l-27 -113 123 0 c104 0 124 2
124 15 0 12 -17 15 -90 15 -49 0 -90 2 -90 5 0 9 30 158 36 178 5 14 18 17 84
17 60 0 79 3 84 15 4 13 -8 15 -74 15 -92 0 -88 -6 -61 105 l17 70 82 -2 c66
-2 82 0 82 12 0 12 -20 15 -108 15 l-109 0 -23 -117z"/>
<path d="M14426 757 c-39 -189 -42 -231 -21 -263 42 -65 172 -83 264 -38 76
38 95 73 145 272 l43 172 -22 0 c-21 0 -24 -9 -44 -115 -25 -131 -53 -230 -76
-263 -30 -41 -91 -65 -158 -60 -52 4 -64 9 -88 36 -16 18 -29 44 -29 58 0 15
14 88 31 163 17 75 34 146 36 159 5 19 1 22 -23 22 l-29 0 -29 -143z"/>
<path d="M16331 486 c-26 -31 14 -71 45 -45 8 7 14 22 12 33 -4 26 -40 33 -57
12z"/>
<path d="M16991 486 c-9 -11 -10 -20 -1 -35 19 -36 64 -20 58 20 -4 28 -39 37
-57 15z"/>
</g>
</svg>
